<?xml version="1.0" standalone="no"?>
<!DOCTYPE svg PUBLIC "-//W3C//DTD SVG 20010904//EN"
 "http://www.w3.org/TR/2001/REC-SVG-20010904/DTD/svg10.dtd">
<svg version="1.0" xmlns="http://www.w3.org/2000/svg"
 width="242.000000pt" height="237.000000pt" viewBox="0 0 242.000000 237.000000"
 preserveAspectRatio="xMidYMid meet">

<g transform="translate(0.000000,237.000000) scale(0.100000,-0.100000)"
fill="#000000" stroke="none">
<path d="M760 1232 l0 -692 450 0 450 0 0 270 0 270 -270 0 -270 0 0 -90 0
-90 180 0 180 0 0 -90 0 -90 -270 0 -270 0 0 387 0 388 135 -135 135 -135 135
135 135 135 0 -118 0 -117 90 0 90 0 0 332 0 333 -225 -225 -225 -225 -225
225 -225 225 0 -693z"/>
</g>
</svg>
